<?xml version="1.0" encoding="UTF-8" standalone="no"?><svg xmlns="http://www.w3.org/2000/svg" xmlns:xlink="http://www.w3.org/1999/xlink" contentScriptType="application/ecmascript" contentStyleType="text/css" height="514px" preserveAspectRatio="none" style="width:1261px;height:514px;" version="1.1" viewBox="0 0 1261 514" width="1261px" zoomAndPan="magnify"><defs><filter height="300%" id="fl6yt7os9fv73" width="300%" x="-1" y="-1"><feGaussianBlur result="blurOut" stdDeviation="2.0"/><feColorMatrix in="blurOut" result="blurOut2" type="matrix" values="0 0 0 0 0 0 0 0 0 0 0 0 0 0 0 0 0 0 .4 0"/><feOffset dx="4.0" dy="4.0" in="blurOut2" result="blurOut3"/><feBlend in="SourceGraphic" in2="blurOut3" mode="normal"/></filter></defs><g><ellipse cx="293.5" cy="20" fill="#000000" filter="url(#fl6yt7os9fv73)" rx="10" ry="10" style="stroke: none; stroke-width: 1.0;"/><polygon fill="#FEFECE" filter="url(#fl6yt7os9fv73)" points="197,50,390,50,402,62,390,74,197,74,185,62,197,50" style="stroke: #A80036; stroke-width: 1.5;"/><text fill="#000000" font-family="sans-serif" font-size="11" lengthAdjust="spacingAndGlyphs" textLength="193" x="197" y="67.0945">Class implements GroovyInterceptable ?</text><text fill="#000000" font-family="sans-serif" font-size="11" lengthAdjust="spacingAndGlyphs" textLength="18" x="167" y="59.583">yes</text><text fill="#000000" font-family="sans-serif" font-size="11" lengthAdjust="spacingAndGlyphs" textLength="12" x="402" y="59.583">no</text><rect fill="#FEFECE" filter="url(#fl6yt7os9fv73)" height="36.3887" rx="12.5" ry="12.5" style="stroke: #A80036; stroke-width: 1.5;" width="147" x="10" y="84"/><text fill="#000000" font-family="sans-serif" font-size="12" lengthAdjust="spacingAndGlyphs" textLength="124" x="23" y="107.752">Call its invokeMethod()</text><polygon fill="#FEFECE" filter="url(#fl6yt7os9fv73)" points="413.1406,84,596.1406,84,608.1406,96,596.1406,108,413.1406,108,401.1406,96,413.1406,84" style="stroke: #A80036; stroke-width: 1.5;"/><text fill="#000000" font-family="sans-serif" font-size="11" lengthAdjust="spacingAndGlyphs" textLength="183" x="413.1406" y="101.0945">Method exists in MetaClass or Class ?</text><text fill="#000000" font-family="sans-serif" font-size="11" lengthAdjust="spacingAndGlyphs" textLength="18" x="383.1406" y="93.583">yes</text><text fill="#000000" font-family="sans-serif" font-size="11" lengthAdjust="spacingAndGlyphs" textLength="12" x="608.1406" y="93.583">no</text><rect fill="#FEFECE" filter="url(#fl6yt7os9fv73)" height="36.3887" rx="12.5" ry="12.5" style="stroke: #A80036; stroke-width: 1.5;" width="209" x="185.8594" y="118"/><text fill="#000000" font-family="sans-serif" font-size="12" lengthAdjust="spacingAndGlyphs" textLength="186" x="198.8594" y="141.752">Call interceptor or original method</text><polygon fill="#FEFECE" filter="url(#fl6yt7os9fv73)" points="624.4219,118,813.4219,118,825.4219,130,813.4219,142,624.4219,142,612.4219,130,624.4219,118" style="stroke: #A80036; stroke-width: 1.5;"/><text fill="#000000" font-family="sans-serif" font-size="11" lengthAdjust="spacingAndGlyphs" textLength="189" x="624.4219" y="135.0945">Property exists in MetaClass or Class ?</text><text fill="#000000" font-family="sans-serif" font-size="11" lengthAdjust="spacingAndGlyphs" textLength="18" x="594.4219" y="127.583">yes</text><text fill="#000000" font-family="sans-serif" font-size="11" lengthAdjust="spacingAndGlyphs" textLength="12" x="825.4219" y="127.583">no</text><rect fill="#FEFECE" filter="url(#fl6yt7os9fv73)" height="36.3887" rx="12.5" ry="12.5" style="stroke: #A80036; stroke-width: 1.5;" width="173" x="434.8594" y="201.5115"/><text fill="#000000" font-family="sans-serif" font-size="12" lengthAdjust="spacingAndGlyphs" textLength="150" x="447.8594" y="225.2634">Call closure's call() method</text><polygon fill="#FEFECE" filter="url(#fl6yt7os9fv73)" points="458.8594,152,583.8594,152,595.8594,164,583.8594,176,458.8594,176,446.8594,164,458.8594,152" style="stroke: #A80036; stroke-width: 1.5;"/><text fill="#000000" font-family="sans-serif" font-size="11" lengthAdjust="spacingAndGlyphs" textLength="18" x="525.3594" y="188.606">yes</text><text fill="#000000" font-family="sans-serif" font-size="11" lengthAdjust="spacingAndGlyphs" textLength="125" x="458.8594" y="169.0945">Is property type Closure ?</text><text fill="#000000" font-family="sans-serif" font-size="11" lengthAdjust="spacingAndGlyphs" textLength="12" x="595.8594" y="161.583">no</text><ellipse cx="627.8594" cy="164" fill="#FEFECE" filter="url(#fl6yt7os9fv73)" rx="10" ry="10" style="stroke: #A80036; stroke-width: 1.5;"/><path d="M624.3438,168 L627.6406,159.4063 L628.8594,159.4063 L632.375,168 L631.0938,168 L630.0781,165.3906 L626.5,165.3906 L625.5469,168 L624.3438,168 Z M626.8281,164.4688 L629.7344,164.4688 L628.8438,162.0938 Q628.4219,161.0156 628.2344,160.3125 Q628.0625,161.1406 627.7656,161.9531 L626.8281,164.4688 Z "/><ellipse cx="916.4844" cy="162" fill="#FEFECE" filter="url(#fl6yt7os9fv73)" rx="10" ry="10" style="stroke: #A80036; stroke-width: 1.5;"/><path d="M912.9688,166 L916.2656,157.4063 L917.4844,157.4063 L921,166 L919.7188,166 L918.7031,163.3906 L915.125,163.3906 L914.1719,166 L912.9688,166 Z M915.4531,162.4688 L918.3594,162.4688 L917.4688,160.0938 Q917.0469,159.0156 916.8594,158.3125 Q916.6875,159.1406 916.3906,159.9531 L915.4531,162.4688 Z "/><polygon fill="#FEFECE" filter="url(#fl6yt7os9fv73)" points="861.4844,207,971.4844,207,983.4844,219,971.4844,231,861.4844,231,849.4844,219,861.4844,207" style="stroke: #A80036; stroke-width: 1.5;"/><text fill="#000000" font-family="sans-serif" font-size="11" lengthAdjust="spacingAndGlyphs" textLength="110" x="861.4844" y="224.0945">Has methodMissing() ?</text><text fill="#000000" font-family="sans-serif" font-size="11" lengthAdjust="spacingAndGlyphs" textLength="18" x="831.4844" y="216.583">yes</text><text fill="#000000" font-family="sans-serif" font-size="11" lengthAdjust="spacingAndGlyphs" textLength="12" x="983.4844" y="216.583">no</text><rect fill="#FEFECE" filter="url(#fl6yt7os9fv73)" height="36.3887" rx="12.5" ry="12.5" style="stroke: #A80036; stroke-width: 1.5;" width="154" x="701.8594" y="241"/><text fill="#000000" font-family="sans-serif" font-size="12" lengthAdjust="spacingAndGlyphs" textLength="134" x="711.8594" y="264.752">Call its methodMissing()</text><polygon fill="#FEFECE" filter="url(#fl6yt7os9fv73)" points="1006.1094,241,1102.1094,241,1114.1094,253,1102.1094,265,1006.1094,265,994.1094,253,1006.1094,241" style="stroke: #A80036; stroke-width: 1.5;"/><text fill="#000000" font-family="sans-serif" font-size="11" lengthAdjust="spacingAndGlyphs" textLength="96" x="1006.1094" y="258.0945">Has invokeMethod()</text><text fill="#000000" font-family="sans-serif" font-size="11" lengthAdjust="spacingAndGlyphs" textLength="18" x="976.1094" y="250.583">yes</text><text fill="#000000" font-family="sans-serif" font-size="11" lengthAdjust="spacingAndGlyphs" textLength="12" x="1114.1094" y="250.583">no</text><rect fill="#FEFECE" filter="url(#fl6yt7os9fv73)" height="36.3887" rx="12.5" ry="12.5" style="stroke: #A80036; stroke-width: 1.5;" width="144" x="885.8594" y="275"/><text fill="#000000" font-family="sans-serif" font-size="12" lengthAdjust="spacingAndGlyphs" textLength="124" x="895.8594" y="298.752">Call its invokeMethod()</text><rect fill="#FEFECE" filter="url(#fl6yt7os9fv73)" height="36.3887" rx="12.5" ry="12.5" style="stroke: #A80036; stroke-width: 1.5;" width="201" x="1049.8594" y="275"/><text fill="#000000" font-family="sans-serif" font-size="12" lengthAdjust="spacingAndGlyphs" textLength="181" x="1059.8594" y="298.752">Throw MissingMethodException()</text><polygon fill="#FEFECE" filter="url(#fl6yt7os9fv73)" points="1054.1094,317.3887,1066.1094,329.3887,1054.1094,341.3887,1042.1094,329.3887,1054.1094,317.3887" style="stroke: #A80036; stroke-width: 1.5;"/><polygon fill="#FEFECE" filter="url(#fl6yt7os9fv73)" points="916.4844,347.3887,928.4844,359.3887,916.4844,371.3887,904.4844,359.3887,916.4844,347.3887" style="stroke: #A80036; stroke-width: 1.5;"/><polygon fill="#FEFECE" filter="url(#fl6yt7os9fv73)" points="718.9219,377.3887,730.9219,389.3887,718.9219,401.3887,706.9219,389.3887,718.9219,377.3887" style="stroke: #A80036; stroke-width: 1.5;"/><polygon fill="#FEFECE" filter="url(#fl6yt7os9fv73)" points="504.6406,407.3887,516.6406,419.3887,504.6406,431.3887,492.6406,419.3887,504.6406,407.3887" style="stroke: #A80036; stroke-width: 1.5;"/><polygon fill="#FEFECE" filter="url(#fl6yt7os9fv73)" points="293.5,437.3887,305.5,449.3887,293.5,461.3887,281.5,449.3887,293.5,437.3887" style="stroke: #A80036; stroke-width: 1.5;"/><ellipse cx="293.5" cy="492.3887" fill="#FFFFFF" filter="url(#fl6yt7os9fv73)" rx="11" ry="11" style="stroke: #000000; stroke-width: 1.0;"/><ellipse cx="293.5" cy="492.3887" fill="#000000" rx="6" ry="6" style="stroke: #7F7F7F; stroke-width: 1.0;"/><line style="stroke: #A80036; stroke-width: 1.5;" x1="521.3594" x2="521.3594" y1="176" y2="201.5115"/><polygon fill="#A80036" points="517.3594,191.5115,521.3594,201.5115,525.3594,191.5115,521.3594,195.5115" style="stroke: #A80036; stroke-width: 1.0;"/><line style="stroke: #A80036; stroke-width: 1.5;" x1="595.8594" x2="617.8594" y1="164" y2="164"/><polygon fill="#A80036" points="607.8594,160,617.8594,164,607.8594,168,611.8594,164" style="stroke: #A80036; stroke-width: 1.0;"/><line style="stroke: #A80036; stroke-width: 1.5;" x1="521.3594" x2="521.3594" y1="237.9001" y2="389.3887"/><line style="stroke: #A80036; stroke-width: 1.5;" x1="521.3594" x2="706.9219" y1="389.3887" y2="389.3887"/><polygon fill="#A80036" points="696.9219,385.3887,706.9219,389.3887,696.9219,393.3887,700.9219,389.3887" style="stroke: #A80036; stroke-width: 1.0;"/><line style="stroke: #A80036; stroke-width: 1.5;" x1="994.1094" x2="957.8594" y1="253" y2="253"/><line style="stroke: #A80036; stroke-width: 1.5;" x1="957.8594" x2="957.8594" y1="253" y2="275"/><polygon fill="#A80036" points="953.8594,265,957.8594,275,961.8594,265,957.8594,269" style="stroke: #A80036; stroke-width: 1.0;"/><line style="stroke: #A80036; stroke-width: 1.5;" x1="1114.1094" x2="1150.3594" y1="253" y2="253"/><line style="stroke: #A80036; stroke-width: 1.5;" x1="1150.3594" x2="1150.3594" y1="253" y2="275"/><polygon fill="#A80036" points="1146.3594,265,1150.3594,275,1154.3594,265,1150.3594,269" style="stroke: #A80036; stroke-width: 1.0;"/><line style="stroke: #A80036; stroke-width: 1.5;" x1="957.8594" x2="957.8594" y1="311.3887" y2="329.3887"/><line style="stroke: #A80036; stroke-width: 1.5;" x1="957.8594" x2="1042.1094" y1="329.3887" y2="329.3887"/><polygon fill="#A80036" points="1032.1094,325.3887,1042.1094,329.3887,1032.1094,333.3887,1036.1094,329.3887" style="stroke: #A80036; stroke-width: 1.0;"/><line style="stroke: #A80036; stroke-width: 1.5;" x1="1150.3594" x2="1150.3594" y1="311.3887" y2="329.3887"/><line style="stroke: #A80036; stroke-width: 1.5;" x1="1150.3594" x2="1066.1094" y1="329.3887" y2="329.3887"/><polygon fill="#A80036" points="1076.1094,325.3887,1066.1094,329.3887,1076.1094,333.3887,1072.1094,329.3887" style="stroke: #A80036; stroke-width: 1.0;"/><line style="stroke: #A80036; stroke-width: 1.5;" x1="849.4844" x2="778.8594" y1="219" y2="219"/><line style="stroke: #A80036; stroke-width: 1.5;" x1="778.8594" x2="778.8594" y1="219" y2="241"/><polygon fill="#A80036" points="774.8594,231,778.8594,241,782.8594,231,778.8594,235" style="stroke: #A80036; stroke-width: 1.0;"/><line style="stroke: #A80036; stroke-width: 1.5;" x1="983.4844" x2="1054.1094" y1="219" y2="219"/><line style="stroke: #A80036; stroke-width: 1.5;" x1="1054.1094" x2="1054.1094" y1="219" y2="241"/><polygon fill="#A80036" points="1050.1094,231,1054.1094,241,1058.1094,231,1054.1094,235" style="stroke: #A80036; stroke-width: 1.0;"/><line style="stroke: #A80036; stroke-width: 1.5;" x1="778.8594" x2="778.8594" y1="277.3887" y2="359.3887"/><line style="stroke: #A80036; stroke-width: 1.5;" x1="778.8594" x2="904.4844" y1="359.3887" y2="359.3887"/><polygon fill="#A80036" points="894.4844,355.3887,904.4844,359.3887,894.4844,363.3887,898.4844,359.3887" style="stroke: #A80036; stroke-width: 1.0;"/><line style="stroke: #A80036; stroke-width: 1.5;" x1="1054.1094" x2="1054.1094" y1="341.3887" y2="359.3887"/><line style="stroke: #A80036; stroke-width: 1.5;" x1="1054.1094" x2="928.4844" y1="359.3887" y2="359.3887"/><polygon fill="#A80036" points="938.4844,355.3887,928.4844,359.3887,938.4844,363.3887,934.4844,359.3887" style="stroke: #A80036; stroke-width: 1.0;"/><line style="stroke: #A80036; stroke-width: 1.5;" x1="916.4844" x2="916.4844" y1="172" y2="207"/><polygon fill="#A80036" points="912.4844,197,916.4844,207,920.4844,197,916.4844,201" style="stroke: #A80036; stroke-width: 1.0;"/><line style="stroke: #A80036; stroke-width: 1.5;" x1="612.4219" x2="521.3594" y1="130" y2="130"/><line style="stroke: #A80036; stroke-width: 1.5;" x1="521.3594" x2="521.3594" y1="130" y2="152"/><polygon fill="#A80036" points="517.3594,142,521.3594,152,525.3594,142,521.3594,146" style="stroke: #A80036; stroke-width: 1.0;"/><line style="stroke: #A80036; stroke-width: 1.5;" x1="825.4219" x2="916.4844" y1="130" y2="130"/><line style="stroke: #A80036; stroke-width: 1.5;" x1="916.4844" x2="916.4844" y1="130" y2="152"/><polygon fill="#A80036" points="912.4844,142,916.4844,152,920.4844,142,916.4844,146" style="stroke: #A80036; stroke-width: 1.0;"/><line style="stroke: #A80036; stroke-width: 1.5;" x1="916.4844" x2="916.4844" y1="371.3887" y2="389.3887"/><line style="stroke: #A80036; stroke-width: 1.5;" x1="916.4844" x2="730.9219" y1="389.3887" y2="389.3887"/><polygon fill="#A80036" points="740.9219,385.3887,730.9219,389.3887,740.9219,393.3887,736.9219,389.3887" style="stroke: #A80036; stroke-width: 1.0;"/><line style="stroke: #A80036; stroke-width: 1.5;" x1="401.1406" x2="290.3594" y1="96" y2="96"/><line style="stroke: #A80036; stroke-width: 1.5;" x1="290.3594" x2="290.3594" y1="96" y2="118"/><polygon fill="#A80036" points="286.3594,108,290.3594,118,294.3594,108,290.3594,112" style="stroke: #A80036; stroke-width: 1.0;"/><line style="stroke: #A80036; stroke-width: 1.5;" x1="608.1406" x2="718.9219" y1="96" y2="96"/><line style="stroke: #A80036; stroke-width: 1.5;" x1="718.9219" x2="718.9219" y1="96" y2="118"/><polygon fill="#A80036" points="714.9219,108,718.9219,118,722.9219,108,718.9219,112" style="stroke: #A80036; stroke-width: 1.0;"/><line style="stroke: #A80036; stroke-width: 1.5;" x1="290.3594" x2="290.3594" y1="154.3887" y2="419.3887"/><line style="stroke: #A80036; stroke-width: 1.5;" x1="290.3594" x2="492.6406" y1="419.3887" y2="419.3887"/><polygon fill="#A80036" points="482.6406,415.3887,492.6406,419.3887,482.6406,423.3887,486.6406,419.3887" style="stroke: #A80036; stroke-width: 1.0;"/><line style="stroke: #A80036; stroke-width: 1.5;" x1="718.9219" x2="718.9219" y1="401.3887" y2="419.3887"/><line style="stroke: #A80036; stroke-width: 1.5;" x1="718.9219" x2="516.6406" y1="419.3887" y2="419.3887"/><polygon fill="#A80036" points="526.6406,415.3887,516.6406,419.3887,526.6406,423.3887,522.6406,419.3887" style="stroke: #A80036; stroke-width: 1.0;"/><line style="stroke: #A80036; stroke-width: 1.5;" x1="185" x2="83.5" y1="62" y2="62"/><line style="stroke: #A80036; stroke-width: 1.5;" x1="83.5" x2="83.5" y1="62" y2="84"/><polygon fill="#A80036" points="79.5,74,83.5,84,87.5,74,83.5,78" style="stroke: #A80036; stroke-width: 1.0;"/><line style="stroke: #A80036; stroke-width: 1.5;" x1="402" x2="504.6406" y1="62" y2="62"/><line style="stroke: #A80036; stroke-width: 1.5;" x1="504.6406" x2="504.6406" y1="62" y2="84"/><polygon fill="#A80036" points="500.6406,74,504.6406,84,508.6406,74,504.6406,78" style="stroke: #A80036; stroke-width: 1.0;"/><line style="stroke: #A80036; stroke-width: 1.5;" x1="83.5" x2="83.5" y1="120.3887" y2="449.3887"/><line style="stroke: #A80036; stroke-width: 1.5;" x1="83.5" x2="281.5" y1="449.3887" y2="449.3887"/><polygon fill="#A80036" points="271.5,445.3887,281.5,449.3887,271.5,453.3887,275.5,449.3887" style="stroke: #A80036; stroke-width: 1.0;"/><line style="stroke: #A80036; stroke-width: 1.5;" x1="504.6406" x2="504.6406" y1="431.3887" y2="449.3887"/><line style="stroke: #A80036; stroke-width: 1.5;" x1="504.6406" x2="305.5" y1="449.3887" y2="449.3887"/><polygon fill="#A80036" points="315.5,445.3887,305.5,449.3887,315.5,453.3887,311.5,449.3887" style="stroke: #A80036; stroke-width: 1.0;"/><line style="stroke: #A80036; stroke-width: 1.5;" x1="293.5" x2="293.5" y1="30" y2="50"/><polygon fill="#A80036" points="289.5,40,293.5,50,297.5,40,293.5,44" style="stroke: #A80036; stroke-width: 1.0;"/><line style="stroke: #A80036; stroke-width: 1.5;" x1="293.5" x2="293.5" y1="461.3887" y2="481.3887"/><polygon fill="#A80036" points="289.5,471.3887,293.5,481.3887,297.5,471.3887,293.5,475.3887" style="stroke: #A80036; stroke-width: 1.0;"/><!--
@startuml
start
if (Class implements GroovyInterceptable ?) then (yes)
    : Call its invokeMethod();
else (no)
    if (Method exists in MetaClass or Class ?) then (yes)
        : Call interceptor or original method;
    else (no)
        if (Property exists in MetaClass or Class ?) then (yes)
            if (Is property type Closure ?) then (yes)
                : Call closure's call() method;
            else (no)
                (A)
            endif
        else (no)
            (A)
            if (Has methodMissing() ?) then (yes)
                :Call its methodMissing();
            else (no)
                if (Has invokeMethod()) then (yes)
                    :Call its invokeMethod();
                else (no)
                    :Throw MissingMethodException();
                endif
            endif
        endif
    endif
endif
stop
@enduml

PlantUML version 1.2019.03(Sun Mar 10 19:04:44 CST 2019)
(GPL source distribution)
Java Runtime: Java(TM) SE Runtime Environment
JVM: Java HotSpot(TM) 64-Bit Server VM
Java Version: 1.8.0_172-b11
Operating System: Windows 10
OS Version: 10.0
Default Encoding: GBK
Language: zh
Country: CN
--></g></svg>